<?xml version="1.0" encoding="UTF-8"?><svg xmlns="http://www.w3.org/2000/svg" xmlns:xlink="http://www.w3.org/1999/xlink" width="30" zoomAndPan="magnify" viewBox="0 0 30 30.000001" height="30.000001" preserveAspectRatio="xMidYMid meet" version="1.0"><defs><clipPath id="clip-0"><path d="M 0.484375 0 L 29.515625 0 L 29.515625 29.03125 L 0.484375 29.03125 Z M 0.484375 0 " clip-rule="nonzero"/></clipPath></defs><g clip-path="url(#clip-0)"><path fill="rgb(0%, 0%, 0%)" d="M 21.835938 0.00390625 C 21.707031 0.445312 21.542969 1.398438 21.332031 1.75 C 21.046875 2.21875 20.683594 2.402344 20.269531 2.640625 C 20.683594 2.878906 21.078125 3.292969 21.332031 3.730469 C 21.648438 4.289062 21.707031 5.144531 21.835938 5.582031 C 21.964844 5.144531 22.023438 4.289062 22.34375 3.730469 C 22.59375 3.292969 22.988281 2.878906 23.402344 2.640625 C 22.988281 2.402344 22.628906 2.21875 22.34375 1.75 C 22.132812 1.398438 21.964844 0.445312 21.835938 0.00390625 Z M 25.136719 5.03125 C 24.945312 5.6875 24.699219 7.101562 24.386719 7.621094 C 23.964844 8.324219 23.425781 8.59375 22.8125 8.945312 C 23.425781 9.300781 24.015625 9.910156 24.386719 10.5625 C 24.859375 11.390625 24.945312 12.660156 25.136719 13.316406 C 25.328125 12.660156 25.417969 11.390625 25.890625 10.5625 C 26.261719 9.910156 26.847656 9.300781 27.460938 8.945312 C 26.847656 8.59375 26.3125 8.324219 25.890625 7.621094 C 25.574219 7.101562 25.328125 5.6875 25.136719 5.03125 Z M 18.683594 5.265625 C 18.140625 5.265625 17.691406 5.710938 17.691406 6.253906 C 17.691406 6.792969 18.140625 7.238281 18.683594 7.238281 C 19.226562 7.238281 19.675781 6.792969 19.675781 6.253906 C 19.675781 5.710938 19.226562 5.265625 18.683594 5.265625 Z M 15.753906 7.003906 C 15.601562 7.53125 15.402344 8.675781 15.148438 9.09375 C 14.808594 9.664062 14.375 9.878906 13.878906 10.167969 C 14.375 10.453125 14.847656 10.945312 15.148438 11.472656 C 15.53125 12.140625 15.601562 13.164062 15.753906 13.695312 C 15.914062 13.164062 15.984375 12.140625 16.363281 11.472656 C 16.664062 10.945312 17.136719 10.453125 17.632812 10.167969 C 17.136719 9.878906 16.703125 9.664062 16.363281 9.09375 C 16.109375 8.675781 15.914062 7.53125 15.753906 7.003906 Z M 20.1875 10.398438 C 19.960938 11.171875 19.671875 12.84375 19.304688 13.457031 C 18.804688 14.28125 18.171875 14.601562 17.449219 15.019531 C 18.171875 15.4375 18.863281 16.160156 19.304688 16.929688 C 19.859375 17.902344 19.960938 19.402344 20.1875 20.171875 C 20.417969 19.402344 20.519531 17.902344 21.074219 16.929688 C 21.515625 16.160156 22.207031 15.4375 22.929688 15.019531 C 22.207031 14.601562 21.574219 14.28125 21.074219 13.457031 C 20.707031 12.84375 20.417969 11.171875 20.1875 10.398438 Z M 26.339844 15.238281 C 25.75 15.238281 25.257812 15.722656 25.257812 16.316406 C 25.257812 16.90625 25.75 17.394531 26.339844 17.394531 C 26.933594 17.394531 27.425781 16.90625 27.425781 16.316406 C 27.425781 15.722656 26.933594 15.238281 26.339844 15.238281 Z M 14.128906 16.453125 L 5.316406 19.40625 L 14.097656 22.300781 L 19.660156 20.46875 C 19.539062 19.582031 19.308594 18.773438 18.996094 18.082031 Z M 15.867188 17.839844 C 16.519531 17.839844 17.058594 18.375 17.058594 19.023438 C 17.058594 19.675781 16.519531 20.210938 15.867188 20.210938 C 15.210938 20.210938 14.671875 19.675781 14.671875 19.023438 C 14.671875 18.375 15.210938 17.839844 15.867188 17.839844 Z M 15.867188 18.449219 C 15.558594 18.449219 15.324219 18.683594 15.324219 18.988281 C 15.324219 19.292969 15.558594 19.527344 15.867188 19.527344 C 16.171875 19.527344 16.40625 19.292969 16.40625 18.988281 C 16.40625 18.683594 16.171875 18.449219 15.867188 18.449219 Z M 21.082031 18.78125 C 20.941406 19.195312 20.828125 19.640625 20.75 20.105469 L 22.914062 19.394531 Z M 24.253906 19.84375 C 24.246094 19.847656 24.234375 19.851562 24.226562 19.851562 L 20.632812 21.039062 C 20.613281 21.300781 20.601562 21.566406 20.601562 21.839844 C 20.597656 22.402344 19.753906 22.402344 19.75 21.839844 C 19.75 21.667969 19.746094 21.5 19.738281 21.335938 L 15.449219 22.75 L 24.226562 25.644531 C 24.230469 25.644531 24.234375 25.644531 24.238281 25.648438 L 32.921875 22.742188 Z M 3.96875 19.851562 L -4.660156 22.742188 L 3.988281 25.636719 L 12.742188 22.75 Z M 14.097656 23.195312 L 5.335938 26.085938 L 14.128906 29.027344 L 22.890625 26.097656 Z M 14.097656 23.195312 " fill-opacity="1" fill-rule="nonzero"/></g></svg>